# xmcd
#
# Track frame offsets:
#	150
#	10554
#	17876
#	36824
#	46460
#	59959
#	78972
#	83385
#	95125
#	109418
#	115361
#	132789
#	152101
#	156369
#	174512
#	187790
#	206769
#	211331
#	229393
#	248061
#	252307
#
# Disc length: 3615 seconds
#
# Revision: 0
# Processed by: cddbd v1.5.1PL2 Copyright (c) Steve Scherf et al.
# Submitted via: EasyCDDAExtractor 8.1.2.3
#
DISCID=1e0e1d15
DTITLE=Redman - Muddy waters
DYEAR=1996
DGENRE=Rap
TTITLE0=Intro
TTITLE1=Iz He 4 Real
TTITLE2=Rock Da Spot
TTITLE3=Welcome (Interlude)
TTITLE4=Case Closed
TTITLE5=Pick It Up
TTITLE6=Skit
TTITLE7=Smoke Buddah
TTITLE8=Whateva Man
TTITLE9=Chicken Head Convention (skit)
TTITLE10=On Fire
TTITLE11=Do What Ya Feel
TTITLE12=The Stick Up (skit)
TTITLE13=Creepin'
TTITLE14=It's Like That (My Big Broth..
TTITLE15=Da Bump
TTITLE16=Skit
TTITLE17=Yesh Yesh Ya'll
TTITLE18=What U Lookin' 4
TTITLE19=Soopaman Luva 3 Interview (s..
TTITLE20=Soopaman Luva 3
EXTD=
EXTT0=
EXTT1=
EXTT2=
EXTT3=
EXTT4=
EXTT5=
EXTT6=
EXTT7=
EXTT8=
EXTT9=
EXTT10=
EXTT11=
EXTT12=
EXTT13=
EXTT14=
EXTT15=
EXTT16=
EXTT17=
EXTT18=
EXTT19=
EXTT20=
PLAYORDER=
